<?xml version="1.0" standalone="no"?><!DOCTYPE svg PUBLIC "-//W3C//DTD SVG 1.1//EN" "http://www.w3.org/Graphics/SVG/1.1/DTD/svg11.dtd"><svg t="1603001284187" class="icon" viewBox="0 0 1024 1024" version="1.1" xmlns="http://www.w3.org/2000/svg" p-id="3190" xmlns:xlink="http://www.w3.org/1999/xlink" width="64" height="64"><defs><style type="text/css"></style></defs><path d="M512 65.536C230.4 65.536 2.048 257.024 2.048 492.544c0 99.328 39.936 190.464 107.52 262.144l0 0c0 0-5.12 180.224-43.008 203.776 0 0 138.24 0 226.304-79.872 66.56 26.624 140.288 40.96 219.136 40.96 281.6 0 509.952-191.488 509.952-427.008C1021.952 257.024 793.6 65.536 512 65.536zM512 878.592c-71.68 0-140.288-13.312-203.776-37.888-5.12-2.048-10.24-3.072-15.36-3.072-10.24 0-19.456 4.096-27.648 10.24-38.912 35.84-91.136 53.248-132.096 61.44 4.096-16.384 7.168-34.816 9.216-56.32 5.12-39.936 7.168-77.824 7.168-92.16 2.048-12.288-2.048-24.576-10.24-33.792-63.488-67.584-97.28-148.48-97.28-234.496 0-212.992 210.944-386.048 468.992-386.048 259.072 0 468.992 173.056 468.992 386.048C980.992 705.536 771.072 878.592 512 878.592z" p-id="3191"></path><path d="M705.536 334.848 318.464 334.848c-11.264 0-20.48 9.216-20.48 20.48s9.216 20.48 20.48 20.48l387.072 0c11.264 0 20.48-9.216 20.48-20.48S716.8 334.848 705.536 334.848z" p-id="3192"></path><path d="M705.536 491.52 318.464 491.52c-11.264 0-20.48 9.216-20.48 20.48s9.216 20.48 20.48 20.48l387.072 0c11.264 0 20.48-9.216 20.48-20.48S716.8 491.52 705.536 491.52z" p-id="3193"></path><path d="M705.536 648.192 318.464 648.192c-11.264 0-20.48 9.216-20.48 20.48s9.216 20.48 20.48 20.48l387.072 0c11.264 0 20.48-9.216 20.48-20.48S716.8 648.192 705.536 648.192z" p-id="3194"></path></svg>