<?xml version="1.0" standalone="no"?><!DOCTYPE svg PUBLIC "-//W3C//DTD SVG 1.1//EN" "http://www.w3.org/Graphics/SVG/1.1/DTD/svg11.dtd"><svg t="1603001255854" class="icon" viewBox="0 0 1024 1024" version="1.1" xmlns="http://www.w3.org/2000/svg" p-id="2370" xmlns:xlink="http://www.w3.org/1999/xlink" width="64" height="64"><defs><style type="text/css"></style></defs><path d="M303.1552 499.7632c-52.1216 0-102.4512-21.8624-138.0352-60.0064-36.096-38.656-53.9648-89.1392-50.2784-142.1312 6.4512-93.3376 81.664-168.5504 175.0016-175.0016 52.992-3.584 103.4752 14.2336 142.1312 50.2784a189.42976 189.42976 0 0 1 60.0064 138.0352v137.7792c0 25.1392-19.6608 45.3632-44.7488 46.08-15.3088 0.4096-33.8944 1.2288-53.6064 2.048-32.768 1.4848-66.6112 2.9184-90.4704 2.9184z m0.1024-326.3488c-3.2768 0-6.5536 0.1024-9.8816 0.3584-67.9424 4.7104-122.7264 59.4944-127.4368 127.4368-2.6624 38.656 10.3424 75.4688 36.6592 103.68 26.3168 28.2112 62.0544 43.7248 100.608 43.7248 22.7328 0 56.064-1.4336 88.2688-2.816 17.8176-0.768 34.7136-1.4848 49.3056-1.9456V310.9888c0-38.5536-15.5136-74.2912-43.7248-100.608-25.8048-24.0128-58.7776-36.9664-93.7984-36.9664zM303.36 904.6016c-4.5056 0-9.0112-0.1536-13.5168-0.4608-93.3376-6.4512-168.5504-81.664-175.0016-175.0016-3.6352-52.992 14.2336-103.4752 50.2784-142.1312a189.42976 189.42976 0 0 1 138.0352-60.0064c23.8592 0 57.8048 1.4336 90.624 2.8672 19.6096 0.8192 38.1952 1.6384 53.4528 2.048 25.088 0.7168 44.7488 20.9408 44.7488 46.08v137.7792c0 52.1216-21.8624 102.4512-60.0064 138.0352-35.3792 33.024-80.5888 50.7904-128.6144 50.7904z m-0.2048-326.3488c-38.5536 0-74.2912 15.5136-100.608 43.7248-26.3168 28.16-39.3216 64.9728-36.6592 103.68 4.7104 67.9424 59.4944 122.7264 127.4368 127.4368 38.656 2.7136 75.4688-10.3424 103.68-36.6592 28.2112-26.3168 43.7248-62.0544 43.7248-100.608v-132.8128c-14.5408-0.4608-31.4368-1.1776-49.152-1.9456-32.256-1.4336-65.6384-2.816-88.4224-2.816zM708.7104 499.7632c-23.8592 0-57.7024-1.4336-90.4704-2.8672-19.712-0.8192-38.2976-1.6384-53.6064-2.048a45.84448 45.84448 0 0 1-44.7488-46.08V310.9888c0-52.1216 21.8624-102.4512 60.0064-138.0352 38.656-36.096 89.1904-53.9136 142.1312-50.2784 93.3376 6.4512 168.5504 81.664 175.0016 175.0016 3.6352 52.992-14.2336 103.4752-50.2784 142.1312-35.584 38.0928-85.9136 59.9552-138.0352 59.9552z m-137.5744-55.9616c14.592 0.4608 31.5392 1.1776 49.3056 1.9456 32.2048 1.3824 65.536 2.816 88.2688 2.816 38.5536 0 74.2912-15.5136 100.608-43.7248 26.3168-28.16 39.3216-64.9728 36.6592-103.68-4.7104-67.9424-59.4432-122.7264-127.4368-127.4368-38.656-2.7136-75.52 10.3424-103.68 36.6592-28.2112 26.3168-43.7248 62.0544-43.7248 100.608v132.8128zM708.5056 904.6016c-48.0256 0-93.2352-17.7664-128.6144-50.7392a189.42976 189.42976 0 0 1-60.0064-138.0352V578.048c0-25.088 19.6608-45.3632 44.7488-46.08 15.2576-0.4096 33.792-1.2288 53.4528-2.048 32.8192-1.3824 66.7136-2.8672 90.624-2.8672 52.1216 0 102.4512 21.8624 138.0352 60.0064 36.096 38.656 53.9648 89.1392 50.2784 142.1312-6.4512 93.3376-81.664 168.5504-175.0016 175.0016-4.5056 0.256-9.0112 0.4096-13.5168 0.4096z m-137.3696-321.6384v132.8128c0 38.5536 15.5136 74.2912 43.7248 100.608 28.16 26.3168 64.9728 39.3216 103.68 36.6592 67.9424-4.7104 122.7264-59.4432 127.4368-127.4368 2.6624-38.656-10.3424-75.52-36.6592-103.68-26.3168-28.2112-62.0544-43.7248-100.608-43.7248-22.784 0-56.1664 1.4336-88.4224 2.816-17.7664 0.768-34.6112 1.4848-49.152 1.9456z" p-id="2371"></path></svg>